<svg width="30" height="30" viewBox="0 0 30 30" fill="none" xmlns="http://www.w3.org/2000/svg">
<path d="M5.53336 25.5009L3.42773 1.875H26.5727L24.4643 25.4972L14.9862 28.125L5.53336 25.5009Z" fill="#1572B6"/>
<path d="M15 26.1169L22.6594 23.9934L24.4612 3.80719H15V26.1169Z" fill="#33A9DC"/>
<path d="M15 12.3666H18.8344L19.0987 9.3994H15V6.50159H22.2656L22.1963 7.27877L21.4847 15.2644H15V12.3666Z" fill="white"/>
<path d="M15.0179 19.8919L15.0048 19.8956L11.7779 19.0238L11.5717 16.7128H8.6626L9.06854 21.2625L15.0038 22.9106L15.0179 22.9069V19.8919Z" fill="#EBEBEB"/>
<path d="M18.5876 15.1415L18.2389 19.0219L15.0073 19.8937V22.9087L20.9473 21.2625L20.9914 20.7731L21.4948 15.1415H18.5876Z" fill="white"/>
<path d="M15.0105 6.50159V9.3994H8.01115L7.95303 8.74784L7.82084 7.27877L7.75146 6.50159H15.0105ZM15.0002 12.3666V15.2644H11.8137L11.7555 14.6128L11.6243 13.1438L11.5549 12.3666H15.0002Z" fill="#EBEBEB"/>
</svg>
