<svg width="370" height="372" viewBox="0 0 370 372" fill="none" xmlns="http://www.w3.org/2000/svg">
<rect width="370" height="372" rx="185" fill="black"/>
<path d="M52.6914 216.689V208.896H37.1738V201.172H21.5879V193.379H6.07031V177.793H21.5879V170H37.1738V162.275H52.6914V154.482H76.0703V170H60.4844V177.793H44.8984V193.379H60.4844V201.172H76.0703V216.689H52.6914ZM91.6562 240V131.172H107.174V146.689H114.967V162.275H122.76V177.793H138.277V162.275H146.07V146.689H153.863V131.172H169.381V240H153.863V177.793H146.07V193.379H138.277V208.896H122.76V193.379H114.967V177.793H107.174V240H91.6562ZM239.449 224.482V216.689H247.242V185.586H239.449V177.793H208.346V185.586H200.553V216.689H208.346V224.482H239.449ZM200.553 240V232.275H192.76V224.482H185.035V177.793H192.76V170H200.553V162.275H247.242V170H255.035V177.793H262.76V224.482H255.035V232.275H247.242V240H200.553ZM278.414 216.689V201.172H293.932V193.379H309.518V177.793H293.932V170H278.414V154.482H301.725V162.275H317.242V170H332.828V177.793H348.414V193.379H332.828V201.172H317.242V208.896H301.725V216.689H278.414Z" fill="white"/>
</svg>
