<svg width="25" height="25" viewBox="0 0 25 25" fill="none" xmlns="http://www.w3.org/2000/svg">
<path d="M12.4999 2.0835C11.132 2.0835 9.77744 2.35293 8.51363 2.87642C7.24982 3.3999 6.1015 4.16719 5.13422 5.13447C3.18072 7.08797 2.08325 9.73749 2.08325 12.5002C2.08325 17.1043 5.07284 21.0106 9.20825 22.396C9.72909 22.4793 9.89575 22.1564 9.89575 21.8752V20.1147C7.01034 20.7397 6.39575 18.7189 6.39575 18.7189C5.91659 17.5106 5.2395 17.1877 5.2395 17.1877C4.29159 16.5418 5.31242 16.5627 5.31242 16.5627C6.35409 16.6356 6.90617 17.6356 6.90617 17.6356C7.81242 19.2189 9.34367 18.7502 9.93742 18.5002C10.0312 17.8231 10.302 17.3647 10.5937 17.1043C8.28117 16.8439 5.85409 15.9481 5.85409 11.9793C5.85409 10.8231 6.24992 9.896 6.927 9.15641C6.82284 8.896 6.45825 7.81266 7.03117 6.40641C7.03117 6.40641 7.90617 6.12516 9.89575 7.46891C10.7187 7.23975 11.6145 7.12516 12.4999 7.12516C13.3853 7.12516 14.2812 7.23975 15.1041 7.46891C17.0937 6.12516 17.9687 6.40641 17.9687 6.40641C18.5416 7.81266 18.177 8.896 18.0728 9.15641C18.7499 9.896 19.1458 10.8231 19.1458 11.9793C19.1458 15.9585 16.7083 16.8335 14.3853 17.0939C14.7603 17.4168 15.1041 18.0522 15.1041 19.021V21.8752C15.1041 22.1564 15.2708 22.4897 15.802 22.396C19.9374 21.0002 22.9166 17.1043 22.9166 12.5002C22.9166 11.1322 22.6472 9.77768 22.1237 8.51388C21.6002 7.25007 20.8329 6.10174 19.8656 5.13447C18.8983 4.16719 17.75 3.3999 16.4862 2.87642C15.2224 2.35293 13.8679 2.0835 12.4999 2.0835Z" fill="white"/>
</svg>
