<svg width="25" height="25" viewBox="0 0 25 25" fill="none" xmlns="http://www.w3.org/2000/svg">
<path d="M12.5001 0C13.8392 0 22.6563 5.09062 23.3235 6.25C23.9946 7.40938 23.9946 17.5906 23.3235 18.75C22.6524 19.9094 13.8384 25 12.5001 25C11.161 25 2.34385 19.9094 1.67275 18.75C1.00557 17.5906 1.00557 7.40938 1.67275 6.25C2.34385 5.09062 11.1618 0 12.5001 0ZM14.8931 7.08437C14.8574 7.08386 14.8221 7.09043 14.789 7.1037C14.756 7.11697 14.7259 7.13669 14.7005 7.1617C14.6751 7.1867 14.655 7.21651 14.6412 7.24937C14.6275 7.28223 14.6204 7.3175 14.6204 7.35312V11.3898H10.3806V7.19453H11.1087C11.1438 7.19443 11.1785 7.18738 11.2108 7.17379C11.2432 7.1602 11.2725 7.14034 11.2971 7.11535C11.3217 7.09037 11.3412 7.06075 11.3543 7.02821C11.3674 6.99567 11.3739 6.96086 11.3735 6.92578C11.3734 6.88025 11.3618 6.83549 11.3398 6.79562C11.3179 6.75575 11.2862 6.72206 11.2478 6.69766L9.60791 5.12734C9.5797 5.09181 9.54383 5.06309 9.50298 5.04334C9.46213 5.02359 9.41735 5.01332 9.37197 5.01328C9.32999 5.01385 9.2887 5.02409 9.2513 5.04319C9.21391 5.06229 9.18142 5.08975 9.15635 5.12344L7.40635 6.69844C7.35613 6.72899 7.31735 6.7752 7.29599 6.82996C7.27462 6.88472 7.27185 6.94498 7.2881 7.00147C7.30436 7.05795 7.33873 7.10753 7.38593 7.14256C7.43313 7.17759 7.49054 7.19612 7.54932 7.19531H8.28213L8.28994 17.6484C8.28994 17.7992 8.404 17.9172 8.55479 17.9172H10.1095C10.1448 17.9173 10.1798 17.9104 10.2124 17.8969C10.2451 17.8835 10.2748 17.8637 10.2997 17.8387C10.3247 17.8137 10.3445 17.7841 10.358 17.7514C10.3714 17.7188 10.3783 17.6838 10.3782 17.6484V13.4773H14.622V17.8023H13.8938C13.8351 17.8015 13.7777 17.8201 13.7305 17.8551C13.6833 17.8901 13.6489 17.9397 13.6326 17.9962C13.6164 18.0527 13.6192 18.1129 13.6405 18.1677C13.6619 18.2225 13.7007 18.2687 13.7509 18.2992L15.3946 19.8742C15.4392 19.9391 15.5415 19.9883 15.6306 19.9883C15.7196 19.9883 15.7931 19.9391 15.8462 19.8742L17.5962 18.2992C17.6348 18.275 17.6667 18.2414 17.6887 18.2015C17.7107 18.1616 17.7221 18.1167 17.722 18.0711C17.7214 18 17.6929 17.932 17.6426 17.8817C17.5923 17.8315 17.5243 17.803 17.4532 17.8023H16.7204L16.7126 7.35312C16.7135 7.31772 16.7074 7.28249 16.6945 7.2495C16.6816 7.2165 16.6623 7.18642 16.6376 7.16102C16.6129 7.13561 16.5834 7.1154 16.5508 7.10157C16.5182 7.08773 16.4832 7.08056 16.4478 7.08047H14.8931V7.08437Z" fill="white"/>
</svg>
