<svg width="30" height="7" viewBox="0 0 30 7" fill="none" xmlns="http://www.w3.org/2000/svg">
<g clip-path="url(#clip0_179_211)">
<path d="M25.1685 0.00251953V0.966973H23.0957V6.04102H22.0591V0.967031H19.9431V0.00251953H25.1685ZM25.4016 5.4658C25.4746 5.4658 25.5384 5.49205 25.5925 5.54467C25.6474 5.59723 25.6747 5.66021 25.6754 5.73357C25.6753 5.78171 25.6619 5.82888 25.6368 5.86992C25.6121 5.91043 25.5775 5.944 25.5363 5.96748C25.4956 5.99181 25.449 6.0045 25.4016 6.00416C25.3256 6.00416 25.2611 5.97785 25.207 5.92529C25.153 5.87268 25.1262 5.80898 25.1269 5.73357C25.1262 5.66021 25.153 5.59723 25.207 5.54467C25.2611 5.49205 25.3256 5.4658 25.4016 5.4658ZM4.85836 6.04102L1.03652 1.2907V6.03855H0V0H1.29557L6.12404 5.99584L6.1241 0.967031L6.12369 0.00251953H11.3491V0.966973H7.16057V2.51854H10.529V3.48305H7.16057V5.07656H11.3491V6.04102H4.85836ZM14.671 3.47385L15.3503 4.31836L13.9584 6.04816H12.5981L14.671 3.47385ZM13.9584 0.00503906L15.7121 2.18297L17.4603 0.0117188L18.8167 0.00966797L16.3912 3.02637L18.8207 6.04354H17.4603L12.602 0.00503906H13.9584ZM27.1706 3.46031H27.6298V5.22984C27.6292 5.39244 27.594 5.53148 27.5252 5.6485C27.4557 5.76539 27.3594 5.85469 27.2359 5.91768C27.113 5.9799 26.969 6.01178 26.8054 6.01178C26.6558 6.01178 26.5217 5.98482 26.4023 5.93221C26.2829 5.87959 26.1881 5.80072 26.1186 5.69689C26.0483 5.59312 26.0139 5.46369 26.0139 5.30871H26.4739C26.4746 5.3765 26.4901 5.43527 26.5195 5.48449C26.5486 5.53306 26.591 5.57221 26.6418 5.59723C26.6944 5.62359 26.7548 5.63672 26.8229 5.63672C26.8967 5.63672 26.9599 5.62148 27.0111 5.59031C27.0623 5.55984 27.1017 5.5142 27.1291 5.45332C27.1558 5.39309 27.1699 5.31838 27.1706 5.22978V3.46031ZM29.5196 4.1523C29.5085 4.04508 29.4592 3.96129 29.3736 3.90182C29.2871 3.84158 29.1755 3.81187 29.0385 3.81187C28.9424 3.81187 28.8595 3.82641 28.7907 3.85477C28.7219 3.88383 28.6685 3.92256 28.632 3.97172C28.5955 4.02082 28.5772 4.07689 28.5758 4.13988C28.5758 4.19244 28.5884 4.23814 28.613 4.27617C28.6384 4.31604 28.6728 4.34946 28.7134 4.37379C28.7575 4.40151 28.8046 4.42402 28.8539 4.44088C28.9058 4.45887 28.9579 4.4741 29.0098 4.48658L29.2492 4.54541C29.3455 4.56756 29.4389 4.59727 29.5281 4.63535C29.6172 4.67273 29.698 4.72049 29.7689 4.77791C29.8399 4.83533 29.8961 4.90453 29.9375 4.98551C29.9789 5.06648 30 5.16129 30 5.27063C30 5.41799 29.9621 5.54742 29.8855 5.65951C29.809 5.77096 29.6987 5.85814 29.554 5.92113C29.4101 5.98342 29.2359 6.01523 29.0309 6.01523C28.8328 6.01523 28.6601 5.98477 28.5146 5.92389C28.3686 5.86371 28.2548 5.77506 28.1726 5.65881C28.0905 5.54256 28.0462 5.4007 28.0399 5.23394H28.4951C28.5013 5.32113 28.5295 5.39379 28.5772 5.45262C28.6256 5.51074 28.6888 5.55363 28.7661 5.5827C28.8441 5.61111 28.9311 5.62564 29.0273 5.62564C29.1278 5.62564 29.2162 5.61041 29.2928 5.58064C29.3687 5.55088 29.4283 5.50939 29.4712 5.45537C29.5147 5.40205 29.5365 5.33912 29.5372 5.26717C29.5365 5.20143 29.5168 5.14676 29.4789 5.10381C29.4403 5.06092 29.3869 5.02494 29.3187 4.99588C29.25 4.96682 29.1699 4.94051 29.0786 4.91772L28.7879 4.84436C28.5779 4.79104 28.4115 4.71012 28.2899 4.60143C28.1678 4.49279 28.1074 4.34889 28.1074 4.16824C28.1074 4.02018 28.1481 3.89004 28.2303 3.77859C28.3117 3.66727 28.4234 3.58072 28.5646 3.51914C28.7064 3.45686 28.8666 3.42639 29.0449 3.42639C29.2261 3.42639 29.3848 3.45686 29.5218 3.51914C29.6586 3.58072 29.7662 3.6665 29.844 3.77584C29.922 3.88523 29.9628 4.01045 29.9649 4.1523H29.5196Z" fill="white"/>
</g>
<defs>
<clipPath id="clip0_179_211">
<rect width="30" height="6.09375" fill="white"/>
</clipPath>
</defs>
</svg>
