<svg width="30" height="19" viewBox="0 0 30 19" fill="none" xmlns="http://www.w3.org/2000/svg">
<g clip-path="url(#clip0_179_184)">
<path d="M14.8309 18.3454C14.7293 18.3454 14.6345 18.3183 14.5465 18.2709L13.6458 17.7359C13.5104 17.6614 13.5781 17.6343 13.6188 17.6208C13.8016 17.5599 13.8354 17.5463 14.025 17.438C14.0454 17.4244 14.0725 17.4312 14.0928 17.4447L14.7835 17.8578C14.8106 17.8713 14.8445 17.8713 14.8647 17.8578L17.5668 16.2935C17.5939 16.2799 17.6075 16.2528 17.6075 16.219V13.0971C17.6075 13.0632 17.5939 13.0362 17.5668 13.0226L14.8647 11.465C14.8377 11.4515 14.8038 11.4515 14.7835 11.465L12.0815 13.0226C12.0544 13.0361 12.0408 13.07 12.0408 13.0971V16.2189C12.0408 16.2461 12.0544 16.2799 12.0815 16.2935L12.8196 16.7201C13.2192 16.9232 13.4697 16.6862 13.4697 16.4492V13.3679C13.4697 13.3273 13.5036 13.2867 13.551 13.2867H13.8964C13.937 13.2867 13.9776 13.3205 13.9776 13.3679V16.4492C13.9776 16.9842 13.6864 17.2957 13.1785 17.2957C13.0228 17.2957 12.9009 17.2957 12.5555 17.1264L11.8445 16.7201C11.6684 16.6185 11.5601 16.4289 11.5601 16.2257V13.1039C11.5601 12.9007 11.6684 12.711 11.8445 12.6095L14.5465 11.0452C14.7158 10.9504 14.9461 10.9504 15.1154 11.0452L17.8173 12.6095C17.9934 12.711 18.1018 12.9007 18.1018 13.1039V16.2257C18.1018 16.4289 17.9934 16.6185 17.8173 16.7201L15.1154 18.2844C15.0273 18.3251 14.9257 18.3454 14.8309 18.3454ZM15.6638 16.1987C14.4788 16.1987 14.235 15.6569 14.235 15.1964C14.235 15.1557 14.2688 15.1151 14.3163 15.1151H14.6684C14.709 15.1151 14.7429 15.1422 14.7429 15.1829C14.7971 15.5418 14.9528 15.7178 15.6706 15.7178C16.2395 15.7178 16.4833 15.5892 16.4833 15.2844C16.4833 15.1083 16.4155 14.9797 15.5284 14.8917C14.7903 14.8171 14.3298 14.6547 14.3298 14.0655C14.3298 13.5169 14.7903 13.1919 15.5623 13.1919C16.4291 13.1919 16.8558 13.4899 16.91 14.1399C16.91 14.1603 16.9032 14.1806 16.8896 14.2009C16.876 14.2144 16.8558 14.228 16.8354 14.228H16.4833C16.4494 14.228 16.4155 14.2009 16.4088 14.167C16.3275 13.7946 16.1176 13.6727 15.5623 13.6727C14.9393 13.6727 14.8647 13.8894 14.8647 14.0519C14.8647 14.2483 14.9528 14.3092 15.7925 14.4176C16.6255 14.526 17.0183 14.6817 17.0183 15.2641C17.0115 15.86 16.5239 16.1987 15.6638 16.1987Z" fill="#539E43"/>
<path d="M6.44709 6.13548C6.44709 6.01361 6.37935 5.89841 6.27102 5.83748L3.39969 4.18513C3.35223 4.158 3.29809 4.14447 3.24395 4.13767H3.21682C3.16268 4.13767 3.10848 4.158 3.06107 4.18513L0.189746 5.83748C0.0813477 5.89841 0.0136719 6.01355 0.0136719 6.13548L0.0204687 10.5779C0.0204687 10.6388 0.0543359 10.6998 0.108477 10.7269C0.162676 10.7608 0.230352 10.7608 0.277812 10.7269L1.98436 9.75171C2.0927 9.69078 2.16043 9.57564 2.16043 9.45376V7.37474C2.16043 7.25287 2.22811 7.13773 2.3365 7.07679L3.06107 6.65691C3.11527 6.62304 3.17621 6.60945 3.23715 6.60945C3.29809 6.60945 3.35902 6.62304 3.40648 6.65691L4.13105 7.07679C4.23945 7.13773 4.30713 7.25281 4.30713 7.37474V9.45376C4.30713 9.57564 4.37486 9.69078 4.4832 9.75171L6.18975 10.7269C6.21611 10.7435 6.24663 10.7523 6.27778 10.7523C6.30894 10.7523 6.33946 10.7435 6.36582 10.7269C6.42002 10.6998 6.45389 10.6388 6.45389 10.5779L6.44709 6.13548ZM20.2484 0.0203467C20.1943 -0.00678223 20.1266 -0.00678223 20.0791 0.0203467C20.025 0.0542139 19.9911 0.108355 19.9911 0.169292V4.57115C19.9911 4.61175 19.9708 4.65236 19.9302 4.67949C19.8896 4.69976 19.8489 4.69976 19.8083 4.67949L19.0905 4.2664C19.0378 4.23644 18.9783 4.22068 18.9177 4.22068C18.8572 4.22068 18.7977 4.23644 18.745 4.2664L15.8737 5.92554C15.7654 5.98648 15.6976 6.10162 15.6976 6.22349V9.53498C15.6976 9.65685 15.7654 9.77205 15.8737 9.83298L18.745 11.4921C18.7977 11.5221 18.8572 11.5378 18.9177 11.5378C18.9783 11.5378 19.0378 11.5221 19.0905 11.4921L21.9618 9.83298C22.0701 9.77205 22.1378 9.65691 22.1378 9.53498V1.27994C22.1378 1.15126 22.0701 1.03619 21.9618 0.97519L20.2484 0.0203467ZM19.9844 8.44472C19.9844 8.47859 19.9708 8.50566 19.9437 8.51919L18.9618 9.08802C18.9481 9.09471 18.933 9.09819 18.9177 9.09819C18.9025 9.09819 18.8874 9.09471 18.8737 9.08802L17.8918 8.51919C17.8647 8.50566 17.8511 8.47179 17.8511 8.44472V7.30701C17.8511 7.27314 17.8647 7.24607 17.8918 7.23253L18.8737 6.66365C18.8874 6.65696 18.9025 6.65348 18.9177 6.65348C18.933 6.65348 18.9481 6.65696 18.9618 6.66365L19.9437 7.23253C19.9708 7.24601 19.9844 7.27994 19.9844 7.30701V8.44472ZM29.8037 7.27994C29.9121 7.219 29.9731 7.10386 29.9731 6.98193V6.17609C29.9731 6.05421 29.9053 5.93908 29.8037 5.87814L26.9527 4.2258C26.9001 4.19583 26.8406 4.18008 26.78 4.18008C26.7195 4.18008 26.66 4.19583 26.6073 4.2258L23.736 5.88488C23.6276 5.94582 23.5599 6.06095 23.5599 6.18283V9.49437C23.5599 9.61625 23.6277 9.73138 23.736 9.79232L26.587 11.4176C26.6954 11.4785 26.8241 11.4785 26.9257 11.4176L28.6525 10.4561C28.7067 10.4289 28.7405 10.368 28.7405 10.3071C28.7405 10.2461 28.7067 10.1852 28.6525 10.1581L25.7676 8.49892C25.7134 8.46505 25.6796 8.41091 25.6796 8.34998V7.31386C25.6796 7.25293 25.7134 7.19199 25.7676 7.16486L26.6683 6.65017C26.6946 6.63358 26.7251 6.62478 26.7563 6.62478C26.7874 6.62478 26.818 6.63358 26.8443 6.65017L27.745 7.16486C27.7992 7.19873 27.833 7.25287 27.833 7.31386V8.1265C27.833 8.18744 27.8669 8.24837 27.9211 8.27544C27.9475 8.29204 27.978 8.30085 28.0091 8.30085C28.0403 8.30085 28.0708 8.29204 28.0972 8.27544L29.8037 7.27994Z" fill="#333333"/>
<path d="M26.7362 7.12411C26.7462 7.11749 26.758 7.11395 26.77 7.11395C26.7821 7.11395 26.7939 7.11749 26.8039 7.12411L27.3525 7.44239C27.3727 7.45599 27.3863 7.47626 27.3863 7.50333V8.13995C27.3863 8.16702 27.3728 8.18736 27.3525 8.20089L26.8039 8.51917C26.7939 8.5258 26.7821 8.52933 26.77 8.52933C26.758 8.52933 26.7462 8.5258 26.7362 8.51917L26.1877 8.20089C26.1673 8.18736 26.1538 8.16702 26.1538 8.13995V7.50339C26.1538 7.47626 26.1673 7.45593 26.1877 7.44245L26.7362 7.12411Z" fill="#539E43"/>
<path d="M11.2485 4.23931C11.1959 4.20935 11.1364 4.1936 11.0758 4.1936C11.0153 4.1936 10.9558 4.20935 10.9031 4.23931L8.05215 5.8848C7.94375 5.94573 7.88281 6.06087 7.88281 6.18275V9.48075C7.88281 9.60263 7.95055 9.71777 8.05215 9.7787L10.9031 11.4243C10.9558 11.4543 11.0153 11.47 11.0758 11.47C11.1364 11.47 11.1959 11.4543 11.2485 11.4243L14.0996 9.7787C14.2079 9.71777 14.2689 9.60263 14.2689 9.48075V6.1828C14.2689 6.06093 14.2011 5.94579 14.0996 5.88486L11.2485 4.23931Z" fill="url(#paint0_linear_179_184)"/>
</g>
<defs>
<linearGradient id="paint0_linear_179_184" x1="12.2373" y1="5.46603" x2="9.11238" y2="10.3763" gradientUnits="userSpaceOnUse">
<stop stop-color="#41873F"/>
<stop offset="0.3288" stop-color="#418B3D"/>
<stop offset="0.6352" stop-color="#419637"/>
<stop offset="0.9319" stop-color="#3FA92D"/>
<stop offset="1" stop-color="#3FAE2A"/>
</linearGradient>
<clipPath id="clip0_179_184">
<rect width="30" height="18.3984" fill="white"/>
</clipPath>
</defs>
</svg>
