<svg width="30" height="30" viewBox="0 0 30 30" fill="none" xmlns="http://www.w3.org/2000/svg">
<path d="M14.8922 1.96877C8.23594 1.96877 8.65688 4.84689 8.65688 4.84689V7.83752H14.9869V8.77502H6.13594C6.13594 8.77502 1.875 8.25002 1.875 15.0047C1.875 21.7594 5.63719 21.4847 5.63719 21.4847H7.80938V18.3338C7.80938 18.3338 7.6875 14.5716 11.4656 14.5716H17.805C17.805 14.5716 21.3413 14.6278 21.3413 11.1478V5.43752C21.3413 5.43752 21.8775 1.95752 14.9269 1.95752L14.8922 1.96877ZM11.3934 3.97221C11.6185 3.96653 11.8401 4.02771 12.0304 4.14802C12.2207 4.26833 12.371 4.44236 12.4623 4.6481C12.5537 4.85384 12.582 5.08204 12.5436 5.30386C12.5053 5.52568 12.402 5.73115 12.2469 5.89427C12.0918 6.0574 11.8917 6.17086 11.6721 6.2203C11.4525 6.26975 11.2232 6.25295 11.0131 6.17205C10.803 6.09115 10.6217 5.94977 10.492 5.76579C10.3623 5.58181 10.29 5.3635 10.2844 5.13846V5.11971C10.2844 4.81786 10.4043 4.52837 10.6177 4.31493C10.8312 4.10149 11.1207 3.98158 11.4225 3.98158L11.3934 3.97221Z" fill="url(#paint0_linear_179_166)"/>
<path d="M15.0795 28.0406C21.7358 28.0406 21.3148 25.1531 21.3148 25.1531V22.1719H14.9858V21.2344H23.8639C23.8639 21.2344 28.1248 21.7106 28.1248 14.9953C28.1248 8.27998 24.3626 8.51529 24.3626 8.51529H22.1623V11.625C22.1623 11.625 22.2842 15.3872 18.5061 15.3872H12.1639C12.1639 15.3872 8.62482 15.3337 8.62482 18.8137V24.5625C8.62482 24.5625 8.08857 28.0425 15.0392 28.0425H15.0767L15.0795 28.0406ZM18.5783 26.0278C18.3532 26.0335 18.1315 25.9723 17.9413 25.852C17.751 25.7317 17.6007 25.5576 17.5094 25.3519C17.418 25.1462 17.3897 24.918 17.4281 24.6961C17.4664 24.4743 17.5697 24.2689 17.7248 24.1057C17.8799 23.9426 18.08 23.8291 18.2996 23.7797C18.5192 23.7303 18.7485 23.747 18.9586 23.8279C19.1687 23.9088 19.35 24.0502 19.4797 24.2342C19.6094 24.4182 19.6817 24.6365 19.6873 24.8615V24.8897C19.6873 25.1915 19.5674 25.481 19.354 25.6944C19.1405 25.9079 18.851 26.0278 18.5492 26.0278H18.5783Z" fill="url(#paint1_linear_179_166)"/>
<defs>
<linearGradient id="paint0_linear_179_166" x1="4.46921" y1="4.52149" x2="16.9255" y2="16.9495" gradientUnits="userSpaceOnUse">
<stop stop-color="#387EB8"/>
<stop offset="1" stop-color="#366994"/>
</linearGradient>
<linearGradient id="paint1_linear_179_166" x1="11.8381" y1="12.6174" x2="26.0695" y2="25.0417" gradientUnits="userSpaceOnUse">
<stop stop-color="#FFE052"/>
<stop offset="1" stop-color="#FFC331"/>
</linearGradient>
</defs>
</svg>
