<svg width="30" height="30" viewBox="0 0 30 30" fill="none" xmlns="http://www.w3.org/2000/svg">
<path d="M23.125 11.8875C22.1876 11.5646 21.3601 10.9841 20.7375 10.2125C20.0513 9.35277 19.1776 8.6614 18.1831 8.19126C17.1887 7.72112 16.0999 7.48466 15 7.49998C13.5205 7.3952 12.0557 7.85154 10.8975 8.77811C9.73929 9.70469 8.97255 11.0335 8.75 12.5C9.18834 11.7665 9.84807 11.1911 10.6342 10.8564C11.4204 10.5217 12.2925 10.445 13.125 10.6375C14.0609 10.9697 14.887 11.5536 15.5125 12.325C16.2025 13.1778 17.0779 13.862 18.0721 14.3256C19.0663 14.7891 20.1532 15.0198 21.25 15C22.7295 15.1048 24.1943 14.6484 25.3525 13.7218C26.5107 12.7953 27.2774 11.4664 27.5 9.99998C27.0696 10.7422 26.412 11.3264 25.6242 11.6662C24.8364 12.0061 23.9602 12.0837 23.125 11.8875ZM6.875 18.1125C7.81243 18.4353 8.6399 19.0159 9.2625 19.7875C9.94869 20.6472 10.8224 21.3386 11.8169 21.8087C12.8113 22.2788 13.9001 22.5153 15 22.5C16.4795 22.6048 17.9443 22.1484 19.1025 21.2218C20.2607 20.2953 21.0274 18.9664 21.25 17.5C20.8117 18.2334 20.1519 18.8089 19.3658 19.1436C18.5796 19.4783 17.7075 19.5549 16.875 19.3625C15.9391 19.0302 15.113 18.4463 14.4875 17.675C13.7957 16.8243 12.9199 16.1415 11.9261 15.6782C10.9323 15.2148 9.84638 14.983 8.75 15C7.27046 14.8952 5.80573 15.3515 4.64751 16.2781C3.48928 17.2047 2.72255 18.5335 2.5 20C2.93038 19.2578 3.58801 18.6736 4.37579 18.3337C5.16357 17.9939 6.03976 17.9163 6.875 18.1125Z" fill="white"/>
</svg>
