<svg width="25" height="25" viewBox="0 0 25 25" fill="none" xmlns="http://www.w3.org/2000/svg">
<path d="M23.3959 6.24984C22.5938 6.61442 21.7292 6.854 20.8334 6.96859C21.7501 6.4165 22.4584 5.5415 22.7917 4.48942C21.9272 5.01025 20.9688 5.37484 19.9584 5.58317C19.1355 4.68734 17.9792 4.1665 16.6667 4.1665C14.2188 4.1665 12.2188 6.1665 12.2188 8.63525C12.2188 8.98942 12.2605 9.33317 12.3334 9.65609C8.62508 9.46859 5.323 7.68734 3.12508 4.98942C2.73966 5.64567 2.52091 6.4165 2.52091 7.229C2.52091 8.78109 3.30216 10.1561 4.5105 10.9373C3.77091 10.9373 3.08341 10.729 2.47925 10.4165V10.4478C2.47925 12.6144 4.02091 14.4269 6.06258 14.8332C5.40709 15.0126 4.71893 15.0375 4.05216 14.9061C4.33509 15.7941 4.88918 16.5711 5.63656 17.1279C6.38393 17.6847 7.287 17.9933 8.21883 18.0103C6.63928 19.2607 4.68133 19.9366 2.66675 19.9269C2.31258 19.9269 1.95841 19.9061 1.60425 19.8644C3.58341 21.1353 5.93758 21.8748 8.45841 21.8748C16.6667 21.8748 21.1772 15.0623 21.1772 9.15609C21.1772 8.95817 21.1772 8.77067 21.1667 8.57275C22.0417 7.94775 22.7917 7.15609 23.3959 6.24984Z" fill="white"/>
</svg>
