<svg width="30" height="30" viewBox="0 0 30 30" fill="none" xmlns="http://www.w3.org/2000/svg">
<path d="M15 2.5C8.1125 2.5 2.5 8.1125 2.5 15C2.5 21.8875 8.1125 27.5 15 27.5C21.8875 27.5 27.5 21.8875 27.5 15C27.5 8.1125 21.8875 2.5 15 2.5ZM3.7625 15C3.7625 13.375 4.1125 11.825 4.7375 10.425L10.1 25.1125C6.35 23.2875 3.7625 19.45 3.7625 15ZM15 26.2375C13.9 26.2375 12.8375 26.075 11.825 25.775L15.2 15.975L18.65 25.4375C18.675 25.4875 18.7 25.55 18.725 25.5875C17.5625 26.0125 16.3125 26.2375 15 26.2375ZM16.55 9.725C17.225 9.6875 17.8375 9.6125 17.8375 9.6125C18.4375 9.5375 18.375 8.65 17.7625 8.6875C17.7625 8.6875 15.9375 8.825 14.7625 8.825C13.6625 8.825 11.8 8.6875 11.8 8.6875C11.2 8.6625 11.125 9.5875 11.7375 9.625C11.7375 9.625 12.3125 9.7 12.9125 9.7375L14.6625 14.5375L12.2 21.9125L8.1125 9.725C8.7875 9.7 9.4 9.625 9.4 9.625C10 9.55 9.9375 8.6625 9.325 8.7C9.325 8.7 7.5 8.8375 6.325 8.8375C6.1125 8.8375 5.8625 8.8375 5.6 8.825C7.625 5.775 11.075 3.7625 15 3.7625C17.925 3.7625 20.5875 4.875 22.5875 6.7125C22.5375 6.7125 22.4875 6.7 22.4375 6.7C21.3375 6.7 20.55 7.6625 20.55 8.7C20.55 9.625 21.0875 10.4125 21.65 11.3375C22.075 12.0875 22.575 13.05 22.575 14.4375C22.575 15.4 22.2 16.5125 21.725 18.075L20.6 21.825L16.55 9.725ZM24.8625 9.6125C26.2665 12.182 26.6119 15.1982 25.8251 18.0186C25.0382 20.839 23.1814 23.2408 20.65 24.7125L24.0875 14.7875C24.725 13.1875 24.9375 11.9 24.9375 10.7625C24.9375 10.35 24.9125 9.9625 24.8625 9.6125Z" fill="white"/>
</svg>
